<?xml version="1.0" encoding="utf-8"?>
<!-- Generator: Adobe Illustrator 27.0.0, SVG Export Plug-In . SVG Version: 6.00 Build 0)  -->
<svg version="1.1" id="Layer_1" xmlns="http://www.w3.org/2000/svg" xmlns:xlink="http://www.w3.org/1999/xlink" x="0px" y="0px"
	 viewBox="0 0 700 700" style="enable-background:new 0 0 700 700;" xml:space="preserve">
<style type="text/css">
	.st0{fill:#FFFFFF;}
</style>
<g>
	<path class="st0" d="M265.4,338.3h-87.5c-19.3,0-37.9-7.7-51.5-21.4c-13.7-13.7-21.4-32.2-21.4-51.5v-87.5
		c0-19.3,7.7-37.9,21.4-51.5s32.2-21.4,51.5-21.4h87.5c19.3,0,37.9,7.7,51.5,21.4c13.7,13.7,21.4,32.2,21.4,51.5v87.5
		c0,19.3-7.7,37.9-21.4,51.5C303.3,330.6,284.7,338.3,265.4,338.3z M177.9,128.3c-13.2,0-25.8,5.2-35.1,14.5
		c-9.3,9.3-14.5,21.9-14.5,35.1v87.5c0,13.1,5.2,25.8,14.5,35.1c9.3,9.3,21.9,14.5,35.1,14.5h87.5c13.1,0,25.8-5.2,35.1-14.5
		c9.3-9.3,14.5-21.9,14.5-35.1v-87.5c0-13.2-5.2-25.8-14.5-35.1c-9.3-9.3-21.9-14.5-35.1-14.5L177.9,128.3z M522.1,338.3h-87.5
		c-19.3,0-37.9-7.7-51.5-21.4c-13.7-13.7-21.4-32.2-21.4-51.5v-87.5c0-19.3,7.7-37.9,21.4-51.5c13.7-13.7,32.2-21.4,51.5-21.4h87.5
		c19.3,0,37.9,7.7,51.5,21.4s21.4,32.2,21.4,51.5v87.5c0,19.3-7.7,37.9-21.4,51.5C559.9,330.6,541.4,338.3,522.1,338.3L522.1,338.3z
		 M434.6,128.3c-13.1,0-25.8,5.2-35.1,14.5c-9.3,9.3-14.5,21.9-14.5,35.1v87.5c0,13.1,5.2,25.8,14.5,35.1
		c9.3,9.3,21.9,14.5,35.1,14.5h87.5c13.2,0,25.8-5.2,35.1-14.5c9.3-9.3,14.5-21.9,14.5-35.1v-87.5c0-13.2-5.2-25.8-14.5-35.1
		c-9.3-9.3-21.9-14.5-35.1-14.5L434.6,128.3z M265.4,595h-87.5c-19.3,0-37.9-7.7-51.5-21.4c-13.7-13.7-21.4-32.2-21.4-51.5v-87.5
		c0-19.3,7.7-37.9,21.4-51.5c13.7-13.7,32.2-21.4,51.5-21.4h87.5c19.3,0,37.9,7.7,51.5,21.4c13.7,13.7,21.4,32.2,21.4,51.5v87.5
		c0,19.3-7.7,37.9-21.4,51.5C303.3,587.3,284.7,595,265.4,595z M177.9,385c-13.2,0-25.8,5.2-35.1,14.5c-9.3,9.3-14.5,21.9-14.5,35.1
		v87.5c0,13.2,5.2,25.8,14.5,35.1c9.3,9.3,21.9,14.5,35.1,14.5h87.5c13.1,0,25.8-5.2,35.1-14.5c9.3-9.3,14.5-21.9,14.5-35.1v-87.5
		c0-13.1-5.2-25.8-14.5-35.1c-9.3-9.3-21.9-14.5-35.1-14.5H177.9z M522.1,595h-87.5c-19.3,0-37.9-7.7-51.5-21.4
		c-13.7-13.7-21.4-32.2-21.4-51.5v-87.5c0-19.3,7.7-37.9,21.4-51.5c13.7-13.7,32.2-21.4,51.5-21.4h87.5c19.3,0,37.9,7.7,51.5,21.4
		c13.7,13.7,21.4,32.2,21.4,51.5v87.5c0,19.3-7.7,37.9-21.4,51.5C559.9,587.3,541.4,595,522.1,595L522.1,595z M434.6,385L434.6,385
		c-13.2,0-25.8,5.2-35.1,14.5c-9.3,9.3-14.5,21.9-14.5,35.1v87.5c0,13.2,5.2,25.8,14.5,35.1c9.3,9.3,21.9,14.5,35.1,14.5h87.5
		c13.2,0,25.8-5.2,35.1-14.5c9.3-9.3,14.5-21.9,14.5-35.1v-87.5c0-13.1-5.2-25.8-14.5-35.1c-9.3-9.3-21.9-14.5-35.1-14.5H434.6z"/>
</g>
</svg>
