<?xml version="1.0" encoding="utf-8"?>
<!-- Generator: Adobe Illustrator 27.0.0, SVG Export Plug-In . SVG Version: 6.00 Build 0)  -->
<svg version="1.1" id="Layer_1" xmlns="http://www.w3.org/2000/svg" xmlns:xlink="http://www.w3.org/1999/xlink" x="0px" y="0px"
	 viewBox="0 0 700 700" style="enable-background:new 0 0 700 700;" xml:space="preserve">
<style type="text/css">
	.st0{fill:#FFFFFF;}
</style>
<g>
	<path class="st0" d="M350,595c-141.9,0-241.1-126.5-245-245c0-6.4,5.2-11.7,11.7-11.7c3.1,0,6.1,1.2,8.2,3.4
		c2.2,2.2,3.4,5.2,3.4,8.2c3,93.3,81.7,221.7,221.7,221.7c58.8,0,115.2-23.4,156.7-64.9c41.6-41.6,64.9-98,64.9-156.7
		c0-125.4-106.4-213.1-210-221.7v58.3c0,6.4-5.2,11.7-11.7,11.7s-11.7-5.2-11.7-11.7v-70c0-3.1,1.3-6.1,3.5-8.3
		c2.2-2.2,5.1-3.4,8.2-3.4c118.2,2.1,245,101,245,245c0,65-25.8,127.3-71.8,173.2C477.3,569.2,415,595,350,595L350,595z M361.7,350
		c0-3.1-1.2-6.1-3.4-8.2s-5.2-3.4-8.2-3.4H175c-6.4,0-11.7,5.2-11.7,11.7s5.2,11.7,11.7,11.7h175c3.1,0,6.1-1.2,8.2-3.4
		S361.7,353.1,361.7,350z"/>
</g>
</svg>
