<?xml version="1.0" encoding="utf-8"?>
<!-- Generator: Adobe Illustrator 27.0.0, SVG Export Plug-In . SVG Version: 6.00 Build 0)  -->
<svg version="1.1" id="Layer_1" xmlns="http://www.w3.org/2000/svg" xmlns:xlink="http://www.w3.org/1999/xlink" x="0px" y="0px"
	 viewBox="0 0 700 700" style="enable-background:new 0 0 700 700;" xml:space="preserve">
<style type="text/css">
	.st0{fill:#FFFFFF;}
</style>
<path class="st0" d="M490,495.8H210c-6.4,0-11.7-5.2-11.7-11.7V262.5c0-54.2,28.9-104.2,75.8-131.3s104.7-27.1,151.7,0
	c46.9,27.1,75.8,77.2,75.8,131.3v221.7c0,3.1-1.2,6.1-3.4,8.2S493.1,495.8,490,495.8L490,495.8z M221.7,472.5h256.7v-210
	c0-45.9-24.5-88.2-64.2-111.1c-39.7-22.9-88.6-22.9-128.3,0c-39.7,22.9-64.2,65.3-64.2,111.1L221.7,472.5z M536.7,542.5H163.3
	c-6.4,0-11.7-5.2-11.7-11.7c0-15.5,6.1-30.3,17.1-41.2c10.9-10.9,25.8-17.1,41.2-17.1h280c15.5,0,30.3,6.1,41.2,17.1
	c10.9,10.9,17.1,25.8,17.1,41.2c0,3.1-1.2,6.1-3.4,8.2C542.7,541.3,539.8,542.5,536.7,542.5L536.7,542.5z M177,519.2h346
	c-2.4-6.8-6.9-12.7-12.8-16.9c-5.9-4.2-13-6.4-20.2-6.4H210c-7.2,0-14.3,2.2-20.2,6.4C183.9,506.4,179.4,512.3,177,519.2L177,519.2z
	 M350,589.2c-12.4,0-24.2-4.9-33-13.7c-8.8-8.8-13.7-20.6-13.7-33c0-5.4,1-10.8,2.9-15.9c1.7-4.5,6-7.5,10.9-7.5h65.8h0
	c4.8,0,9.1,3,10.9,7.5c1.9,5.1,2.9,10.4,2.9,15.9c0,12.4-4.9,24.2-13.7,33C374.3,584.3,362.4,589.2,350,589.2L350,589.2z
	 M326.7,542.5L326.7,542.5c0,8.3,4.4,16,11.7,20.2c7.2,4.2,16.1,4.2,23.3,0c7.2-4.2,11.7-11.9,11.7-20.2L326.7,542.5z"/>
</svg>
