<?xml version="1.0" encoding="utf-8"?>
<!-- Generator: Adobe Illustrator 27.0.0, SVG Export Plug-In . SVG Version: 6.00 Build 0)  -->
<svg version="1.1" id="Layer_1" xmlns="http://www.w3.org/2000/svg" xmlns:xlink="http://www.w3.org/1999/xlink" x="0px" y="0px"
	 viewBox="0 0 700 700" style="enable-background:new 0 0 700 700;" xml:space="preserve">
<style type="text/css">
	.st0{fill:#FFFFFF;}
</style>
<g>
	<path class="st0" d="M540.1,219.7c-3.3-1.2-6.9-1.1-10.1,0.4c-3.2,1.5-5.6,4.2-6.8,7.5l-16.8,44.8
		c-72-147.8-291.2-126.3-332.1,33.9c-1.8,7,2.5,14.2,9.5,16s14.2-2.5,16-9.5c35.6-138.6,226-154.6,284.9-25.6L433.5,268
		c-6.5-1.6-13.2,2.1-15.4,8.4c-2.2,6.3,0.6,13.3,6.7,16.2l77.4,29.1c6.8,2.5,14.4-1,17-7.8l28.6-77.6
		C550.1,229.7,546.7,222.3,540.1,219.7L540.1,219.7z"/>
	<path class="st0" d="M516,378c-3.4-0.9-7-0.4-10,1.4c-3,1.8-5.2,4.7-6,8.1C464.3,526,273.9,542,215.2,412.9l51.2,19.2
		c6.8,2.6,14.4-0.9,16.9-7.7c2.6-6.8-0.9-14.4-7.7-16.9l-78-29.1c-6.8-2.5-14.4,0.9-17,7.8l-28.9,77.6c-1.6,6.5,2.1,13.2,8.4,15.4
		c6.3,2.2,13.3-0.6,16.2-6.7l16.8-44.8c72.1,147.5,291,126.1,332.5-34.1C527.3,386.7,523,379.7,516,378L516,378z"/>
</g>
</svg>
