<?xml version="1.0" encoding="utf-8"?>
<!-- Generator: Adobe Illustrator 27.0.0, SVG Export Plug-In . SVG Version: 6.00 Build 0)  -->
<svg version="1.1" id="Layer_1" xmlns="http://www.w3.org/2000/svg" xmlns:xlink="http://www.w3.org/1999/xlink" x="0px" y="0px"
	 viewBox="0 0 700 700" style="enable-background:new 0 0 700 700;" xml:space="preserve">
<style type="text/css">
	.st0{fill:#FFFFFF;}
</style>
<g>
	<path class="st0" d="M583.3,525H256.7c-6.4,0-11.7-5.2-11.7-11.7c0-6.4,5.2-11.7,11.7-11.7h326.7c6.4,0,11.7,5.2,11.7,11.7
		C595,519.8,589.8,525,583.3,525z"/>
	<path class="st0" d="M186.7,525h-70c-6.4,0-11.7-5.2-11.7-11.7c0-6.4,5.2-11.7,11.7-11.7h70c6.4,0,11.7,5.2,11.7,11.7
		C198.3,519.8,193.1,525,186.7,525z"/>
	<path class="st0" d="M221.7,560c-12.4,0-24.2-4.9-33-13.7c-8.8-8.8-13.7-20.6-13.7-33c0-12.4,4.9-24.2,13.7-33
		c8.8-8.8,20.6-13.7,33-13.7c12.4,0,24.2,4.9,33,13.7c8.8,8.8,13.7,20.6,13.7,33c0,12.4-4.9,24.2-13.7,33
		C245.9,555.1,234,560,221.7,560L221.7,560z M221.7,490c-6.2,0-12.1,2.5-16.5,6.8c-4.4,4.4-6.8,10.3-6.8,16.5
		c0,6.2,2.5,12.1,6.8,16.5s10.3,6.8,16.5,6.8c6.2,0,12.1-2.5,16.5-6.8c4.4-4.4,6.8-10.3,6.8-16.5c0-6.2-2.5-12.1-6.8-16.5
		C233.8,492.5,227.9,490,221.7,490z"/>
	<path class="st0" d="M583.3,361.7h-70c-6.4,0-11.7-5.2-11.7-11.7s5.2-11.7,11.7-11.7h70c6.4,0,11.7,5.2,11.7,11.7
		S589.8,361.7,583.3,361.7z"/>
	<path class="st0" d="M443.3,361.7H116.7c-6.4,0-11.7-5.2-11.7-11.7s5.2-11.7,11.7-11.7h326.7c6.4,0,11.7,5.2,11.7,11.7
		S449.8,361.7,443.3,361.7z"/>
	<path class="st0" d="M478.3,396.7c-12.4,0-24.2-4.9-33-13.7c-8.8-8.8-13.7-20.6-13.7-33s4.9-24.2,13.7-33
		c8.8-8.8,20.6-13.7,33-13.7c12.4,0,24.2,4.9,33,13.7c8.8,8.8,13.7,20.6,13.7,33s-4.9,24.2-13.7,33
		C502.6,391.8,490.7,396.7,478.3,396.7z M478.3,326.7c-6.2,0-12.1,2.5-16.5,6.8c-4.4,4.4-6.8,10.3-6.8,16.5s2.5,12.1,6.8,16.5
		c4.4,4.4,10.3,6.8,16.5,6.8c6.2,0,12.1-2.5,16.5-6.8s6.8-10.3,6.8-16.5s-2.5-12.1-6.8-16.5S484.5,326.7,478.3,326.7z"/>
	<path class="st0" d="M583.3,198.3H256.7c-6.4,0-11.7-5.2-11.7-11.7c0-6.4,5.2-11.7,11.7-11.7h326.7c6.4,0,11.7,5.2,11.7,11.7
		C595,193.1,589.8,198.3,583.3,198.3z"/>
	<path class="st0" d="M186.7,198.3h-70c-6.4,0-11.7-5.2-11.7-11.7c0-6.4,5.2-11.7,11.7-11.7h70c6.4,0,11.7,5.2,11.7,11.7
		C198.3,193.1,193.1,198.3,186.7,198.3z"/>
	<path class="st0" d="M221.7,233.3c-12.4,0-24.2-4.9-33-13.7c-8.8-8.8-13.7-20.6-13.7-33c0-12.4,4.9-24.2,13.7-33
		c8.8-8.8,20.6-13.7,33-13.7c12.4,0,24.2,4.9,33,13.7c8.8,8.8,13.7,20.6,13.7,33c0,12.4-4.9,24.2-13.7,33
		C245.9,228.4,234,233.3,221.7,233.3L221.7,233.3z M221.7,163.3c-6.2,0-12.1,2.5-16.5,6.8s-6.8,10.3-6.8,16.5
		c0,6.2,2.5,12.1,6.8,16.5c4.4,4.4,10.3,6.8,16.5,6.8c6.2,0,12.1-2.5,16.5-6.8c4.4-4.4,6.8-10.3,6.8-16.5c0-6.2-2.5-12.1-6.8-16.5
		C233.8,165.8,227.9,163.3,221.7,163.3z"/>
</g>
</svg>
